<?xml version="1.0" encoding="iso-8859-1"?>
<!-- Uploaded to: SVG Repo, www.svgrepo.com, Generator: SVG Repo Mixer Tools -->
<svg version="1.1" id="Layer_1" xmlns="http://www.w3.org/2000/svg" xmlns:xlink="http://www.w3.org/1999/xlink" 
	 viewBox="0 0 512 512" xml:space="preserve">
<path style="fill:#FF734D;" d="M107.707,59.152c-2.004-6.77-11.593-6.77-13.598,0l-22.227,91.104h58.052L107.707,59.152z"/>
<rect x="56.311" y="135.307" style="fill:#FF8766;" width="89.181" height="44.097"/>
<rect x="56.311" y="154.581" style="opacity:0.15;fill:#333333;enable-background:new    ;" width="89.181" height="24.819"/>
<path style="fill:#CCF7FF;" d="M153.568,167.066H48.248C21.601,167.066,0,188.667,0,215.314v194.364
	c0,26.647,21.601,48.248,48.248,48.248h105.32c26.647,0,48.248-21.601,48.248-48.248V215.314
	C201.816,188.667,180.214,167.066,153.568,167.066z"/>
<path style="opacity:0.1;fill:#333333;enable-background:new    ;" d="M22.659,409.677V215.314
	c0-26.647,21.601-48.248,48.248-48.248H48.248C21.601,167.066,0,188.667,0,215.314v194.364c0,26.647,21.601,48.248,48.248,48.248
	h22.659C44.26,457.925,22.659,436.323,22.659,409.677z"/>
<path style="fill:#FF734D;" d="M148.959,221.561H52.857c-7.599,0-13.76,6.161-13.76,13.76v154.35c0,7.599,6.161,13.76,13.76,13.76
	h96.101c7.599,0,13.76-6.161,13.76-13.76v-154.35C162.719,227.722,156.558,221.561,148.959,221.561z"/>
<path style="fill:#CCF7FF;" d="M418.011,85.945L418.011,85.945L253.66,308.646l36.943-1.25l14.668,39.339l126.263-171.091
	C452.57,147.14,446.515,106.98,418.011,85.945z"/>
<path style="opacity:0.15;fill:#333333;enable-background:new    ;" d="M307.052,269.385c-5.967-3.365-12.261-5.89-18.834-7.566
	l-34.557,46.827l36.943-1.25l14.668,39.339l33.071-44.812C331.086,288.093,320.467,276.951,307.052,269.385z"/>
<path style="fill:#4DA3FF;" d="M296.548,288.009c-34.385-19.392-82.792,1.295-108.121,46.205s-17.988,97.039,16.398,116.431
	c34.385,19.392,82.792-1.295,108.121-46.205S330.933,307.401,296.548,288.009z M280.354,386.06
	c-8.114,14.388-20.061,25.757-32.777,31.19c-5.481,2.342-15.936,5.562-24.372,0.805c-8.436-4.757-11.089-15.37-11.921-21.273
	c-1.929-13.693,1.619-29.798,9.734-44.186c8.114-14.388,20.061-25.757,32.778-31.191c5.481-2.342,15.936-5.562,24.372-0.805
	c8.435,4.757,11.089,15.37,11.92,21.272C292.017,355.567,288.469,371.672,280.354,386.06z"/>
<path style="fill:#8FADB3;" d="M267.343,85.945L267.343,85.945l164.351,222.701l-36.943-1.25l-14.668,39.339L253.82,175.644
	C232.784,147.14,238.839,106.98,267.343,85.945z"/>
<path style="opacity:0.15;fill:#333333;enable-background:new    ;" d="M380.083,346.735l14.668-39.339l36.943,1.25l-34.557-46.827
	c-6.573,1.676-12.867,4.2-18.835,7.566c-13.416,7.566-24.034,18.707-31.29,32.537L380.083,346.735z"/>
<path style="fill:#4DA3FF;" d="M496.927,334.214c-25.329-44.911-73.736-65.597-108.121-46.205
	c-34.385,19.392-41.727,71.52-16.398,116.431c25.329,44.911,73.736,65.597,108.121,46.205S522.256,379.126,496.927,334.214z
	 M474.069,396.782c-0.832,5.903-3.485,16.516-11.921,21.273c-8.436,4.757-18.891,1.537-24.372-0.805
	c-12.716-5.434-24.662-16.802-32.777-31.19c-8.114-14.388-11.662-30.493-9.734-44.187c0.831-5.902,3.485-16.515,11.92-21.272
	c8.436-4.757,18.891-1.537,24.372,0.805c12.717,5.435,24.663,16.803,32.778,31.191C472.45,366.983,475.998,383.088,474.069,396.782z
	"/>
<circle style="opacity:0.3;fill:#333333;enable-background:new    ;" cx="342.679" cy="241.997" r="12.55"/>
</svg>