<?xml version="1.0" encoding="utf-8"?><!-- Uploaded to: SVG Repo, www.svgrepo.com, Generator: SVG Repo Mixer Tools -->
<svg width="800px" height="800px" viewBox="0 0 960 960" fill="none" xmlns="http://www.w3.org/2000/svg">
<path d="M476.027 758.558C328.75 761.694 208.331 651.071 210.257 501.978C213.715 374.543 281.86 224.07 420.207 201.717C568.138 171.275 740.18 256.851 759.46 416.755C770.681 506.051 742.981 599.774 687.102 670.082C636.201 736.559 555.764 755.506 476.027 758.558ZM479.526 720.304C580.489 719.247 657.684 679.385 697.369 583.07C751.807 471.221 729.287 321.537 610.279 262.996C508.472 210.845 362.464 221.157 300.509 327.217C193.106 493.765 257.056 723.529 479.526 720.304Z" fill="#000000"/>
<path d="M858.78 808.601C860.131 829.2 838.839 839.105 825.496 826.719C818.408 819.66 812.204 811.621 806.238 803.548C779.324 766.03 752.116 728.751 723.301 692.656C715.875 684.864 713.986 671.828 722.564 664.537C733.726 653.896 748.49 663.844 756.108 674.03C787.615 713.839 819.35 753.51 850.678 793.444C854.666 798.793 857.071 805.325 858.78 808.601Z" fill="#000000"/>
<path d="M857.637 173.699C854.485 178.925 851.983 184.706 848.071 189.281C819.552 222.67 789.556 254.817 763.24 289.996C751.716 303.337 729.05 291.923 734.129 274.856C740.216 254.974 756.009 240.248 768.556 224.274C785.512 204.215 802.661 184.316 819.941 164.536C830.628 148.866 855.614 151.608 856.023 172.725C856.561 173.049 857.099 173.374 857.637 173.699Z" fill="#000000"/>
<path d="M203.537 345.575C166.373 333.806 134.774 309.089 100.716 290.649C88.4627 284.826 80.1536 270.163 88.1627 258.703C101.454 238.532 124.473 257.673 138.985 266.977C159.587 279.897 180.189 292.815 200.769 305.771C205.555 308.783 210.584 311.537 214.906 315.125C227.376 325.441 219.222 344.929 203.537 345.575Z" fill="#000000"/>
<path d="M287.211 858.156C295.328 834.137 312.639 811.582 324.762 789.071C331.483 777.758 345.384 763.573 358.486 772.791C370.924 779.997 366.009 796.444 359.535 807.113C348.546 826.963 337.622 846.855 326.228 866.472C316.726 886.041 287.653 883.931 287.211 858.156Z" fill="#000000"/>
<path d="M785.598 545.168C815.26 557.208 842.802 574.875 870.405 591.023C888.925 604.397 873.294 633.855 852.017 624.823C840.276 619.849 828.659 614.21 817.868 607.452C804.027 598.784 790.966 588.849 777.769 579.186C772.574 575.383 768.813 570.36 768.61 563.418C768.319 553.458 775.247 546.193 785.598 545.168Z" fill="#000000"/>
<path d="M350.549 102.548C349.501 83.6737 368.565 74.1137 381.777 85.1037C397.543 103.261 404.504 128.022 416.024 149.044C418.208 153.701 419.367 159 420.118 164.132C421.284 172.085 417.16 179.281 410.546 182.323C398.574 188.341 387.848 176.43 382.925 166.078C372.448 145.633 357.959 123.936 350.549 102.548Z" fill="#000000"/>
<path d="M133.026 513.13C144.958 513.13 156.936 512.481 168.809 513.319C193.187 514.405 191.79 549.36 168.083 550.001C145.911 551.279 123.716 552.3 101.516 552.917C89.5891 553.248 80.8218 544.906 80.4609 534.1C80.7473 507.515 114.776 514.223 133.026 513.521C133.026 513.391 133.026 513.26 133.026 513.13Z" fill="#000000"/>
<path d="M203.708 746.164C186.65 747.494 177.134 726.529 188.936 715.47C197.142 707.729 205.948 700.502 215.148 693.973C230.015 682.683 251.453 704.607 239.19 718.618C231.641 725.573 213.026 745.742 203.708 746.164Z" fill="#000000"/>
<path d="M619.725 143.867C649.494 146.179 635.918 177.027 625.881 193.024C621.594 200.28 612.498 202.039 605.224 199.254C597.838 196.425 592.093 188.429 594.027 180.166C596.281 170.533 600.103 161.111 604.431 152.172C607.17 146.514 613.125 143.893 619.725 143.867Z" fill="#000000"/>
<path d="M603.541 814.711C605.597 839.128 581.476 847.213 571.133 828.425C567.383 820.19 564.518 811.23 563.198 802.302C560.523 783.791 589.384 776.329 596.68 793.395C600.31 801.486 602.191 810.363 603.541 814.711Z" fill="#000000"/>
<path d="M267.913 194.068C280.266 194.074 294.212 212.688 295.293 224.188C295.861 237.767 281.605 247.218 269.432 240.528C262.781 236.874 256.755 231.518 251.583 225.887C240.609 213.757 250.644 192.928 267.913 194.068Z" fill="#000000"/>
<path d="M829.483 461.465C824.85 460.3 819.995 459.667 815.632 457.852C798.892 451.47 803.273 423.624 821.464 423.033C859.358 420.142 861.886 460.951 829.685 460.662C829.618 460.929 829.55 461.197 829.483 461.465Z" fill="#000000"/>
<path d="M479.533 720.304C257.076 723.526 193.089 493.717 300.519 327.214C362.468 221.148 508.478 210.854 610.292 262.994C729.268 321.555 751.842 471.211 697.372 583.075C658.268 678.851 579.845 719.594 479.533 720.304ZM406.328 501.124C440.546 513.442 474.469 523.86 509.21 534.163C517.801 537.104 525.499 539.409 534.715 535.836C542.108 532.971 549.286 517.359 545.726 508.863C541.956 499.866 534.382 496.307 526.319 493.634C489.515 481.886 454.26 471.249 417.189 458.758C420.482 452.69 423.32 447.46 426.537 441.533C450.013 449.304 473.782 454.238 497.699 460.128C516.722 464.665 535.734 469.263 554.832 473.462C565.45 475.796 575.853 469.496 578.864 459.663C584.257 440.91 567.339 432.297 551.599 429.557C519.357 419.319 486.764 414.595 455.273 401.795C484.119 378.194 516.189 361.481 553.866 367.374C576.92 369.696 594.449 380.557 607.391 399.936C613.247 405.881 621.216 406.888 628.468 404.324C636.728 401.404 641.429 394.528 642.289 385.389C643.703 370.336 633.599 360.955 624.748 351.599C588.401 317.704 525.388 312.492 480.507 330.861C452.492 342.029 427.769 360.445 408.382 383.572C407.386 384.767 405.105 385.939 403.767 385.629C386.853 380.804 369.759 376.674 352.099 376.144C334.682 375.28 325.329 397.2 334.429 411.291C344.095 424.851 363.128 422.912 377.709 427.685C374.65 433.765 372.249 438.537 370.466 442.081C357.755 440.164 346.273 437.192 334.753 437.042C323.278 436.892 313.447 447.053 315.7 462.382C320.166 480.781 342.965 480.168 357.35 484.822C352.333 527.322 358.032 572.829 390.137 604.023C418.438 631.102 456.908 649.856 496.311 650.61C512.836 650.758 529.38 647.597 545.932 646.095C558.061 644.995 571.39 635.345 572.166 619.415C568.996 580.904 532.608 596.861 508.151 597.894C490.867 598.855 474.007 596.005 458.451 587.971C419.702 570.873 407.192 541.813 406.328 501.124Z" fill="white"/>
<path d="M406.326 501.123C407.216 541.883 419.678 570.829 458.452 587.967C474.004 596.003 490.864 598.853 508.148 597.892C532.59 596.866 568.993 580.89 572.164 619.414C571.388 635.343 558.06 644.993 545.931 646.093C529.379 647.594 512.834 650.756 496.31 650.607C456.906 649.859 418.436 631.097 390.133 604.023C358.04 572.826 352.324 527.321 357.349 484.821C342.977 480.177 320.154 480.772 315.699 462.381C313.446 447.052 323.277 436.891 334.753 437.041C346.272 437.191 357.754 440.162 370.465 442.08C372.248 438.536 374.649 433.764 377.709 427.684C363.113 422.93 344.064 424.808 334.429 411.292C325.279 397.208 334.723 375.272 352.098 376.142C369.764 376.673 386.85 380.803 403.766 385.629C405.104 385.938 407.385 384.766 408.382 383.571C427.766 360.445 452.493 342.028 480.505 330.862C525.413 312.486 588.366 317.702 624.748 351.596C633.599 360.954 643.703 370.335 642.288 385.388C641.429 394.527 636.728 401.403 628.468 404.323C621.215 406.887 613.246 405.88 607.393 399.933C594.603 380.693 576.739 369.593 553.863 367.373C516.174 361.484 484.132 378.187 455.273 401.794C486.749 414.589 519.369 419.322 551.599 429.557C567.292 432.278 584.295 440.937 578.862 459.663C575.852 469.495 565.449 475.795 554.831 473.461C535.733 469.262 516.721 464.664 497.698 460.127C473.779 454.236 450.015 449.303 426.535 441.532C423.319 447.459 420.48 452.689 417.187 458.757C454.253 471.245 489.519 481.886 526.317 493.633C534.381 496.306 541.954 499.866 545.724 508.862C549.285 517.358 542.106 532.97 534.713 535.835C525.497 539.408 517.8 537.103 509.208 534.163C474.463 523.856 440.553 513.442 406.326 501.123Z" fill="#000000"/>
</svg>