<?xml version="1.0" encoding="iso-8859-1"?>
<!-- Uploaded to: SVG Repo, www.svgrepo.com, Generator: SVG Repo Mixer Tools -->
<svg fill="#000000" version="1.1" id="Layer_1" xmlns="http://www.w3.org/2000/svg" xmlns:xlink="http://www.w3.org/1999/xlink" 
	 viewBox="0 0 512 512" xml:space="preserve">
<g>
	<g>
		<g>
			<path d="M0,452.267c0,14.114,11.486,25.6,25.6,25.6h460.8c14.114,0,25.6-11.486,25.6-25.6V136.533H0V452.267z M375.467,179.2
				c0-4.719,3.823-8.533,8.533-8.533h51.2c4.71,0,8.533,3.814,8.533,8.533v51.2c0,4.719-3.823,8.533-8.533,8.533H384
				c-4.71,0-8.533-3.814-8.533-8.533V179.2z M273.067,179.2c0-4.719,3.823-8.533,8.533-8.533h51.2c4.71,0,8.533,3.814,8.533,8.533
				v51.2c0,4.719-3.823,8.533-8.533,8.533h-51.2c-4.71,0-8.533-3.814-8.533-8.533V179.2z M358.4,256
				c51.755,0,93.867,42.112,93.867,93.867c0,51.755-42.112,93.867-93.867,93.867s-93.867-42.112-93.867-93.867
				C264.533,298.112,306.645,256,358.4,256z M170.667,179.2c0-4.719,3.823-8.533,8.533-8.533h51.2c4.71,0,8.533,3.814,8.533,8.533
				v51.2c0,4.719-3.823,8.533-8.533,8.533h-51.2c-4.71,0-8.533-3.814-8.533-8.533V179.2z M170.667,273.067
				c0-4.719,3.823-8.533,8.533-8.533h51.2c4.71,0,8.533,3.814,8.533,8.533v51.2c0,4.719-3.823,8.533-8.533,8.533h-51.2
				c-4.71,0-8.533-3.814-8.533-8.533V273.067z M170.667,366.933c0-4.719,3.823-8.533,8.533-8.533h51.2
				c4.71,0,8.533,3.814,8.533,8.533v51.2c0,4.719-3.823,8.533-8.533,8.533h-51.2c-4.71,0-8.533-3.814-8.533-8.533V366.933z
				 M68.267,179.2c0-4.719,3.823-8.533,8.533-8.533H128c4.71,0,8.533,3.814,8.533,8.533v51.2c0,4.719-3.823,8.533-8.533,8.533H76.8
				c-4.71,0-8.533-3.814-8.533-8.533V179.2z M68.267,273.067c0-4.719,3.823-8.533,8.533-8.533H128c4.71,0,8.533,3.814,8.533,8.533
				v51.2c0,4.719-3.823,8.533-8.533,8.533H76.8c-4.71,0-8.533-3.814-8.533-8.533V273.067z M68.267,366.933
				c0-4.719,3.823-8.533,8.533-8.533H128c4.71,0,8.533,3.814,8.533,8.533v51.2c0,4.719-3.823,8.533-8.533,8.533H76.8
				c-4.71,0-8.533-3.814-8.533-8.533V366.933z"/>
			<rect x="85.333" y="281.6" width="34.133" height="34.133"/>
			<rect x="85.333" y="187.733" width="34.133" height="34.133"/>
			<rect x="187.733" y="375.467" width="34.133" height="34.133"/>
			<path d="M486.4,34.133H25.6c-14.114,0-25.6,11.486-25.6,25.6v59.733h512V59.733C512,45.619,500.514,34.133,486.4,34.133z"/>
			<rect x="290.133" y="187.733" width="34.133" height="34.133"/>
			<rect x="392.533" y="187.733" width="34.133" height="34.133"/>
			<rect x="85.333" y="375.467" width="34.133" height="34.133"/>
			<path d="M358.4,426.664c42.342,0,76.8-34.449,76.8-76.8c0-42.351-34.458-76.8-76.8-76.8s-76.8,34.449-76.8,76.8
				C281.6,392.215,316.058,426.664,358.4,426.664z M309.7,352.364c3.337-3.328,8.73-3.328,12.066,0l26.778,26.778l45.423-68.139
				c2.611-3.925,7.91-4.975,11.836-2.372c3.917,2.62,4.975,7.91,2.364,11.836l-51.2,76.8c-1.417,2.125-3.721,3.507-6.255,3.755
				c-0.29,0.026-0.563,0.043-0.845,0.043c-2.253,0-4.429-0.887-6.033-2.5L309.7,364.431
				C306.364,361.103,306.364,355.701,309.7,352.364z"/>
			<rect x="187.733" y="281.6" width="34.133" height="34.133"/>
			<rect x="187.733" y="187.733" width="34.133" height="34.133"/>
		</g>
	</g>
</g>
</svg>