<?xml version="1.0" encoding="iso-8859-1"?>
<!-- Uploaded to: SVG Repo, www.svgrepo.com, Generator: SVG Repo Mixer Tools -->
<svg version="1.1" id="Layer_1" xmlns="http://www.w3.org/2000/svg" xmlns:xlink="http://www.w3.org/1999/xlink" 
	 viewBox="0 0 512 512" xml:space="preserve">
<path style="fill:#E04F5F;" d="M256,0C201.824,56.96,122.944,65.816,79.104,65.816c-19.8,0-32.432-1.808-32.432-1.808s0,92,0,224
	S256,512,256,512s209.328-92,209.328-224s0-224,0-224s-12.632,1.808-32.432,1.808C389.056,65.816,310.208,56.96,256,0L256,0z"/>
<path style="fill:#ED6982;" d="M256,512c0,0,209.328-92,209.328-224s0-224,0-224s-12.632,1.808-32.432,1.808
	C389.056,65.816,310.208,56.96,256,0l0,0"/>
<g>
	<path style="fill:#FFFFFF;" d="M256.76,381.672c-73.888,0-134-60.112-134-133.992c0-73.888,60.112-134,134-134
		c73.88,0,133.992,60.112,133.992,134C390.752,321.56,330.648,381.672,256.76,381.672z M256.76,125.68c-67.272,0-122,54.728-122,122
		c0,67.264,54.728,121.992,122,121.992c67.264,0,121.992-54.728,121.992-121.992C378.752,180.408,324.032,125.68,256.76,125.68z"/>
	<rect x="250.76" y="115.824" style="fill:#FFFFFF;" width="12" height="256.96"/>
	<rect x="128.56" y="241.68" style="fill:#FFFFFF;" width="258.936" height="12"/>
	<path style="fill:#FFFFFF;" d="M256.608,216.256c-67.152,0-93.912-55.8-95.016-58.168l10.872-5.08
		c0.984,2.096,24.8,51.248,84.144,51.248c59.552,0,83.24-50.144,83.48-50.648l10.904,5
		C349.912,160.96,323.776,216.256,256.608,216.256z"/>
	<path style="fill:#FFFFFF;" d="M172.464,342.344l-10.872-5.08c1.104-2.376,27.864-58.168,95.016-58.168
		c67.168,0,93.304,55.296,94.384,57.648l-10.896,5.016c-0.96-2.072-24.168-50.664-83.488-50.664
		C197.264,291.104,173.448,340.248,172.464,342.344z"/>
	<path style="fill:#FFFFFF;" d="M249.944,381.032c-2.544-2.328-62.2-57.8-62.2-133.352c0-75.664,61.016-129.08,63.616-131.312
		l7.832,9.096c-0.6,0.504-59.456,52.16-59.456,122.216c0,70.176,57.72,123.96,58.304,124.496L249.944,381.032z"/>
	<path style="fill:#FFFFFF;" d="M263.584,381.032l-8.104-8.848c0.584-0.536,58.304-54.32,58.304-124.496
		c0-70.064-58.848-121.712-59.456-122.216l7.832-9.096c2.6,2.232,63.616,55.648,63.616,131.312
		C325.784,323.232,266.128,378.704,263.584,381.032z"/>
</g>
</svg>